<svg viewBox="0 0 1200 500" xmlns="http://www.w3.org/2000/svg">
  <defs>
    <!-- Using exact website colors -->
    <linearGradient id="websiteGradient" x1="0%" y1="0%" x2="100%" y2="100%">
      <stop offset="0%" style="stop-color:#0f172a;stop-opacity:1" />
      <stop offset="30%" style="stop-color:#1e293b;stop-opacity:1" />
      <stop offset="70%" style="stop-color:#334155;stop-opacity:1" />
      <stop offset="100%" style="stop-color:#475569;stop-opacity:1" />
    </linearGradient>
    
    <!-- Website accent blue gradient -->
    <linearGradient id="accentBlue" x1="0%" y1="0%" x2="100%" y2="100%">
      <stop offset="0%" style="stop-color:#3b82f6;stop-opacity:0.4" />
      <stop offset="100%" style="stop-color:#2563eb;stop-opacity:0.2" />
    </linearGradient>
    
    <!-- Subtle light accents -->
    <linearGradient id="lightAccent" x1="0%" y1="0%" x2="100%" y2="100%">
      <stop offset="0%" style="stop-color:#64748b;stop-opacity:0.3" />
      <stop offset="100%" style="stop-color:#94a3b8;stop-opacity:0.1" />
    </linearGradient>
    
    <!-- Professional grid pattern -->
    <pattern id="subtleGrid" x="0" y="0" width="60" height="60" patternUnits="userSpaceOnUse">
      <path d="M 60 0 L 0 0 0 60" fill="none" stroke="rgba(100,116,139,0.08)" stroke-width="0.5"/>
    </pattern>
    
    <!-- Dot pattern -->
    <pattern id="dotGrid" x="0" y="0" width="40" height="40" patternUnits="userSpaceOnUse">
      <circle cx="20" cy="20" r="0.5" fill="rgba(59,130,246,0.1)"/>
    </pattern>
  </defs>
  
  <!-- Main gradient background using website colors -->
  <rect width="1200" height="500" fill="url(#websiteGradient)"/>
  
  <!-- Abstract flowing shapes -->
  <g opacity="0.6">
    <!-- Large organic flow -->
    <path d="M 0 250 Q 300 150 600 250 Q 900 350 1200 250 L 1200 500 L 0 500 Z" 
          fill="rgba(59,130,246,0.1)" />
    
    <!-- Secondary flow -->
    <path d="M 0 350 Q 200 280 400 350 Q 600 420 800 350 Q 1000 280 1200 350 L 1200 500 L 0 500 Z" 
          fill="rgba(100,116,139,0.08)" />
  </g>
  
  <!-- Professional abstract elements -->
  <g opacity="0.7">
    
  </g>
  
  <!-- Subtle background elements -->
  <g opacity="0.4">
    <!-- Floating elements -->
    <circle cx="100" cy="400" r="2" fill="rgba(59,130,246,0.3)"/>
    <circle cx="1100" cy="100" r="2" fill="rgba(100,116,139,0.4)"/>
  </g>
  
  <!-- Flowing curves -->
  <g opacity="0.3" fill="none" stroke-width="1">
    <path d="M 0 200 Q 400 160 800 200 Q 1000 240 1200 200" 
          stroke="rgba(59,130,246,0.2)" />
    <path d="M 0 320 Q 300 280 600 320 Q 900 360 1200 320" 
          stroke="rgba(100,116,139,0.2)" />
  </g>
  
</svg>